<svg width="50" height="66" viewBox="0 0 50 66" fill="none" xmlns="http://www.w3.org/2000/svg">
<path d="M34.3134 43.5059H15.5266C10.9978 43.5059 7.32651 39.8345 7.32651 35.3057V18.5603C7.32651 8.84361 15.2035 0.966797 24.92 0.966797C34.6366 0.966797 42.5135 8.84361 42.5135 18.5603V35.3057C42.5135 39.8345 38.8421 43.5059 34.3134 43.5059Z" fill="#655E67"/>
<path d="M24.92 0.966797C24.2665 0.966797 23.6215 1.00366 22.9864 1.07302C31.7932 2.03595 38.6463 9.4973 38.6463 18.5603V35.3057C38.6463 39.8346 34.9751 43.5059 30.4462 43.5059H34.3134C38.8423 43.5059 42.5135 39.8346 42.5135 35.3057V18.5603C42.5135 8.84361 34.6366 0.966797 24.92 0.966797Z" fill="#544F56"/>
<path d="M48.8732 64.7109V52.4788C48.8732 49.1578 46.753 46.2073 43.6054 45.1483L40.7754 44.196L39.5647 45.7223L38.2713 43.3535L32.4123 41.3821C31.3632 41.0291 30.6564 40.0456 30.6564 38.9386V34.7402H19.1837V38.9385C19.1837 40.0455 18.4771 41.0289 17.4278 41.382L6.2347 45.1483C3.08707 46.2073 0.966949 49.1578 0.966949 52.4788V64.7109C0.966949 65.4229 1.54406 66 2.25601 66H47.5842C48.296 66 48.8732 65.4229 48.8732 64.7109Z" fill="#B3E59F"/>
<path d="M43.6054 45.1483L40.7754 44.196L39.5647 45.7223L38.2713 43.3535L32.4123 41.3821C31.3632 41.0291 30.6564 40.0456 30.6564 38.9386V34.7402H19.1837V36.6738H26.7892V40.872C26.7892 41.979 27.4959 42.9625 28.5451 43.3156L39.7382 47.0818C42.8858 48.1409 45.006 51.0913 45.006 54.4124V66H47.5841C48.296 66 48.8731 65.4229 48.8731 64.7109V52.4788C48.8731 49.1578 46.753 46.2073 43.6054 45.1483Z" fill="#95D6A4"/>
<path d="M17.341 41.4111L24.6843 48.7544C24.8856 48.9558 25.2121 48.9558 25.4135 48.7544L32.6919 41.4761L32.4123 41.382C31.3632 41.0289 30.6564 40.0455 30.6564 38.9385V34.7402H19.1837V38.9385C19.1837 40.0454 18.4771 41.0289 17.4278 41.382L17.341 41.4111Z" fill="#E2A770"/>
<path d="M32.4123 41.382C31.3631 41.0289 30.6563 40.0455 30.6563 38.9386V34.7402H26.7892V38.9385C26.7815 39.7155 27.163 40.469 27.7654 40.9611C28.2319 41.3423 28.2489 42.0519 27.8229 42.478L23.1153 47.1855L24.6844 48.7544C24.8857 48.9558 25.2122 48.9558 25.4136 48.7544L32.692 41.4761L32.4123 41.382Z" fill="#D5985C"/>
<path d="M39.5647 60.6238C41.8637 60.6238 43.7275 58.76 43.7275 56.461C43.7275 54.162 41.8637 52.2982 39.5647 52.2982C37.2657 52.2982 35.4019 54.162 35.4019 56.461C35.4019 58.76 37.2657 60.6238 39.5647 60.6238Z" fill="#F1EFF1"/>
<path d="M39.6427 24.7653H38.6263V19.0236H39.6427C41.2282 19.0236 42.5135 20.3089 42.5135 21.8944C42.5135 23.48 41.2282 24.7653 39.6427 24.7653Z" fill="#D5985C"/>
<path d="M38.6262 19.0237V24.5473C38.6262 32.1332 32.4636 38.2796 24.8717 38.2534C17.2966 38.2272 11.2139 31.9737 11.2139 24.3985V19.0237C13.4083 18.8563 16.6316 18.3294 20.1323 16.66C21.9017 15.8162 23.3621 14.8618 24.5263 13.9723C24.764 13.7907 25.0875 13.7751 25.3403 13.935C26.8376 14.8816 28.6592 15.8798 30.8015 16.769C33.7549 17.9947 36.4549 18.6555 38.6262 19.0237Z" fill="#E2A770"/>
<path d="M34.7591 18.1471V22.6136C34.7591 30.1994 28.5964 36.3458 21.0045 36.3197C19.6119 36.3148 18.2701 36.0988 17.007 35.7036C19.2268 37.2978 21.937 38.2431 24.8717 38.2532C32.4636 38.2794 38.6262 32.1329 38.6262 24.5472C38.6262 22.1106 38.6262 21.4601 38.6262 19.0234C37.4729 18.828 36.1694 18.5486 34.7591 18.1471Z" fill="#D5985C"/>
<path d="M10.1974 24.7653H11.2138V19.0236H10.1974C8.61183 19.0236 7.32651 20.3089 7.32651 21.8944C7.32651 23.48 8.61183 24.7653 10.1974 24.7653Z" fill="#D5985C"/>
<path d="M24.92 58.2656C24.3861 58.2656 23.9532 58.6985 23.9532 59.2324C23.9532 59.7663 24.3861 60.1992 24.92 60.1992C25.454 60.1992 25.8868 59.7663 25.8868 59.2324C25.8868 58.6985 25.454 58.2656 24.92 58.2656ZM24.92 52.4648C24.3861 52.4648 23.9532 52.8977 23.9532 53.4316C23.9532 53.9656 24.3861 54.3984 24.92 54.3984C25.454 54.3984 25.8868 53.9656 25.8868 53.4316C25.8868 52.8977 25.454 52.4648 24.92 52.4648ZM24.92 64.0664C24.3861 64.0664 23.9532 64.4993 23.9532 65.0332C23.9532 65.5671 24.3861 66 24.92 66C25.454 66 25.8868 65.5671 25.8868 65.0332C25.8868 64.4993 25.454 64.0664 24.92 64.0664ZM43.9133 44.2319L39.6099 42.7837C41.9889 41.0893 43.4799 38.3082 43.4799 35.3063C43.4861 35.2939 43.4799 18.5601 43.4799 18.5601C43.4799 13.6041 41.5496 8.94352 38.0444 5.43701C34.5385 1.93089 29.8775 0 24.92 0C21.7358 0 18.5942 0.820231 15.8347 2.37213C15.3694 2.63381 15.2042 3.2233 15.4659 3.68865C15.7276 4.15413 16.3172 4.319 16.7824 4.05745C19.2532 2.6681 22.0671 1.93359 24.92 1.93359C29.361 1.93359 33.5364 3.66326 36.6771 6.80393C39.8171 9.94525 41.5464 14.1203 41.5464 18.5599V18.5643C40.9848 18.242 40.3352 18.0567 39.6427 18.0567H38.7136C36.127 17.6125 33.59 16.8794 31.172 15.8758C29.3317 15.1121 27.5434 14.1841 25.8568 13.1178C25.2661 12.7442 24.4955 12.7789 23.9393 13.204C22.6236 14.2091 21.2028 15.0783 19.7161 15.7873C17.045 17.0611 14.1708 17.8244 11.1728 18.0567H10.1975C9.50503 18.0567 8.85534 18.242 8.29383 18.5643V18.5599C8.29383 14.0614 10.0619 9.84779 13.2724 6.69552C13.6535 6.32143 13.659 5.70939 13.285 5.32834C12.911 4.94742 12.2988 4.94162 11.9178 5.31584C8.33392 8.83459 6.36023 13.5382 6.36023 18.5599V35.3061C6.36023 38.3081 7.85129 41.0893 10.2303 42.7836L5.92672 44.2319C2.3818 45.425 0 48.7393 0 52.479V65.0332C0 65.5671 0.432867 66 0.966797 66C1.50073 66 1.93359 65.5671 1.93359 65.0332V52.479C1.93359 49.5704 3.78623 46.9925 6.54354 46.0645L8.2237 45.4991C7.97504 46.521 7.86509 47.5743 7.90376 48.617C7.94037 49.607 8.10743 50.5801 8.39657 51.5238C6.51853 52.0877 5.14594 53.8315 5.14594 55.8908V59.8254C5.14594 60.7988 5.93781 61.5905 6.91105 61.5905H7.99451C8.52844 61.5905 8.96131 61.1576 8.96131 60.6237C8.96131 60.0898 8.52844 59.6569 7.99451 59.6569H7.0794V55.8907C7.0794 54.4434 8.25632 53.266 9.70329 53.2651C9.70406 53.2651 9.70471 53.2652 9.70548 53.2652C9.70625 53.2652 9.70703 53.2651 9.7078 53.2651C11.1544 53.2666 12.3308 54.4438 12.3308 55.8907V59.6569H11.4158C10.8819 59.6569 10.449 60.0898 10.449 60.6237C10.449 61.1576 10.8819 61.5905 11.4158 61.5905H12.4993C13.4725 61.5905 14.2644 60.7986 14.2644 59.8254V55.8908C14.2644 53.6081 12.5782 51.7122 10.386 51.3825C10.0579 50.4674 9.87177 49.516 9.8358 48.5454C9.78824 47.2584 10.0129 45.951 10.486 44.7378L17.081 42.5184L24.0008 49.4381C24.5661 50.0088 25.53 50.0115 26.0973 49.4381L28.0071 47.5284C28.3846 47.1508 28.3846 46.5386 28.0071 46.1612C27.6295 45.7836 27.0173 45.7836 26.6399 46.1612L25.0489 47.7518L18.9206 41.6234C19.8293 40.8335 20.2433 39.6294 20.1505 38.4144C21.6312 38.9308 23.2182 39.2143 24.8683 39.2201C26.5315 39.2259 28.1601 38.9546 29.6896 38.4303C29.5316 39.6633 30.1028 41.0051 31.0622 41.7386L29.8235 42.9772C29.4459 43.3548 29.4459 43.967 29.8235 44.3444C30.2011 44.722 30.8132 44.722 31.1907 44.3444L32.9519 42.5831L38.8395 44.5644C39.2847 45.6968 39.5145 46.9215 39.5031 48.1335C39.4926 49.2323 39.2828 50.3419 38.8958 51.3764C36.3825 51.7053 34.4351 53.8592 34.4351 56.4608C34.4351 59.2893 36.7362 61.5904 39.5647 61.5904C42.3931 61.5904 44.6942 59.2894 44.6942 56.4609C44.6942 54.0931 43.0811 52.0957 40.8964 51.5077C41.2406 50.4228 41.426 49.2825 41.4367 48.1519C41.4457 47.2053 41.3325 46.2522 41.1063 45.3272L43.2966 46.0643C46.0541 46.9924 47.9066 49.5703 47.9066 52.4789V65.0331C47.9066 65.567 48.3395 65.9999 48.8734 65.9999C49.4073 65.9999 49.8402 65.567 49.8402 65.0331V52.4789C49.8402 48.7393 47.4584 45.4251 43.9133 44.2319ZM39.593 19.9903H39.6427C40.69 19.9903 41.5422 20.8405 41.5464 21.8869V21.9017C41.5417 22.9621 40.6582 23.8287 39.593 23.7983V19.9903ZM8.2937 21.887C8.29679 20.826 9.18302 19.9605 10.247 19.9904V23.7985C9.18186 23.8279 8.29821 22.9648 8.2937 21.9019V21.887ZM18.2169 38.9387C18.2169 39.6316 17.7763 40.2449 17.1197 40.4652L12.6841 41.958C10.045 40.8282 8.29383 38.1969 8.29383 35.3063V25.2246C8.90046 25.5753 9.5709 25.7441 10.3073 25.7323C10.7664 30.8923 13.8605 35.3059 18.2169 37.5786V38.9387ZM24.8749 37.2865C17.8753 37.2623 12.1806 31.4807 12.1806 24.3985V19.9045C15.1072 19.5832 17.9181 18.7868 20.5484 17.5325C22.1032 16.7912 23.591 15.8878 24.9735 14.8464C26.7086 15.9317 28.5438 16.8786 30.4308 17.6617C32.7546 18.6263 35.1826 19.3548 37.6593 19.8311V24.5472C37.6593 27.9583 36.3286 31.163 33.9124 33.5709C31.4551 36.0199 28.3855 37.2988 24.8749 37.2865ZM37.1561 41.9578L32.7195 40.4648C32.0638 40.2449 31.6232 39.6316 31.6232 38.9387V37.6067C32.9542 36.9217 34.1863 36.0279 35.2774 34.9406C37.7787 32.4479 39.2692 29.2138 39.5455 25.732C40.2564 25.7422 40.9641 25.5628 41.5465 25.2244V35.306C41.5464 38.1967 39.7952 40.8282 37.1561 41.9578ZM42.7607 56.4609C42.7607 58.2232 41.327 59.6569 39.5648 59.6569C37.8025 59.6569 36.3688 58.2232 36.3688 56.4609C36.3688 54.6999 37.8006 53.2672 39.5611 53.2651C39.5621 53.2651 39.5631 53.2652 39.5642 53.2652C39.5651 53.2652 39.566 53.2651 39.5669 53.2651C41.3281 53.2661 42.7607 54.6993 42.7607 56.4609ZM31.1716 20.7789C30.6377 20.7789 30.2048 21.2118 30.2048 21.7457V23.9574C30.2048 24.4913 30.6377 24.9242 31.1716 24.9242C31.7055 24.9242 32.1384 24.4913 32.1384 23.9574V21.7457C32.1384 21.2118 31.7055 20.7789 31.1716 20.7789ZM26.2927 29.9645C26.0752 30.1191 25.6186 30.3817 25.0051 30.4036C24.3131 30.4277 23.7933 30.1387 23.5464 29.9637C23.1108 29.655 22.5073 29.758 22.1986 30.1937C21.8898 30.6293 21.9928 31.2328 22.4285 31.5416C22.8564 31.8447 23.7356 32.3387 24.9208 32.3387C25.9591 32.3387 26.9234 31.8883 27.4124 31.5409C27.8477 31.2317 27.95 30.6281 27.6407 30.1928C27.3316 29.7575 26.7281 29.6553 26.2927 29.9645ZM18.6685 20.7789C18.1345 20.7789 17.7017 21.2118 17.7017 21.7457V23.9574C17.7017 24.4913 18.1345 24.9242 18.6685 24.9242C19.2024 24.9242 19.6353 24.4913 19.6353 23.9574V21.7457C19.6353 21.2118 19.2025 20.7789 18.6685 20.7789Z" fill="black"/>
</svg>
