<svg width="179" height="73" viewBox="0 0 179 73" fill="#333" xmlns="http://www.w3.org/2000/svg">
<path d="M16.9375 36.6094C14.0938 36.6094 11.7969 36.4062 10.0469 36C8.29688 35.5938 6.89062 35.0547 5.82812 34.3828C4.78125 33.7109 3.94531 32.8516 3.32031 31.8047C2.69531 30.7422 2.27344 29.6562 2.05469 28.5469C1.85156 27.4375 1.75 26.1406 1.75 24.6562V13.1016C1.75 8.97656 2.58594 6.08594 4.25781 4.42969C5.92969 2.75781 8.14844 1.6875 10.9141 1.21875C12.4766 0.9375 14.2422 0.804687 16.2109 0.820312C23.3516 0.820312 27.6094 2.77344 28.9844 6.67969C29.6094 8.42969 29.9219 10.5234 29.9219 12.9609V13.3828L23.1016 14.1797V12.4219C23.1016 10.0156 22.625 8.39062 21.6719 7.54688C20.7344 6.70312 18.9297 6.28125 16.2578 6.28125C13.5859 6.28125 11.6562 6.71094 10.4688 7.57031C9.29688 8.41406 8.71094 9.98438 8.71094 12.2812V25.3594C8.71094 27.6719 9.3125 29.2188 10.5156 30C11.7344 30.7656 13.6641 31.1484 16.3047 31.1484C17.6953 31.1484 18.7969 31.0781 19.6094 30.9375C20.4219 30.7812 21.1016 30.4766 21.6484 30.0234C22.2109 29.5703 22.5938 28.9688 22.7969 28.2188C23 27.4688 23.1016 26.4688 23.1016 25.2188V24.1172H29.9219V24.75C29.9219 28.1719 29.4141 30.6484 28.3984 32.1797C27.3984 33.6953 25.9531 34.8125 24.0625 35.5312C22.1719 36.25 19.7969 36.6094 16.9375 36.6094ZM46.75 36.5391C39.4688 36.5391 35.8281 33.8203 35.8281 28.3828V18.4688C35.8281 15.8906 36.7812 13.8828 38.6875 12.4453C40.6094 11.0078 43.2891 10.2891 46.7266 10.2891C50.1797 10.2891 52.8672 11.0156 54.7891 12.4688C56.7109 13.9062 57.6719 15.9062 57.6719 18.4688V28.3828C57.6719 32.4297 55.75 34.9609 51.9062 35.9766C50.4688 36.3516 48.75 36.5391 46.75 36.5391ZM46.75 32.1094C49.7812 32.1094 51.2969 30.9609 51.2969 28.6641V18.1875C51.2969 16.9531 50.9141 16.0703 50.1484 15.5391C49.3828 15.0078 48.25 14.7422 46.75 14.7422C43.7188 14.7422 42.2031 15.8906 42.2031 18.1875V28.6641C42.2031 29.8984 42.5781 30.7812 43.3281 31.3125C44.0938 31.8438 45.2344 32.1094 46.75 32.1094ZM64.3281 36V10.8281H70.7031V13.8281C71.0781 13.1094 71.8594 12.4688 73.0469 11.9062C75.0938 10.9219 77.0703 10.4297 78.9766 10.4297C79.1953 10.4297 79.3984 10.4375 79.5859 10.4531L79.4453 15.8672C76.6484 16.0078 74.3281 16.5312 72.4844 17.4375C71.4531 17.9375 70.8594 18.5 70.7031 19.125V36H64.3281ZM93.9062 36.5391C86.625 36.5391 82.9844 33.8203 82.9844 28.3828V18.4688C82.9844 15.8906 83.9375 13.8828 85.8438 12.4453C87.7656 11.0078 90.4453 10.2891 93.8828 10.2891C97.3359 10.2891 100.023 11.0156 101.945 12.4688C103.867 13.9062 104.828 15.9062 104.828 18.4688V28.3828C104.828 32.4297 102.906 34.9609 99.0625 35.9766C97.625 36.3516 95.9062 36.5391 93.9062 36.5391ZM93.9062 32.1094C96.9375 32.1094 98.4531 30.9609 98.4531 28.6641V18.1875C98.4531 16.9531 98.0703 16.0703 97.3047 15.5391C96.5391 15.0078 95.4062 14.7422 93.9062 14.7422C90.875 14.7422 89.3594 15.8906 89.3594 18.1875V28.6641C89.3594 29.8984 89.7344 30.7812 90.4844 31.3125C91.25 31.8438 92.3906 32.1094 93.9062 32.1094ZM127.188 18.3047C127.188 16.1328 125.711 15.0469 122.758 15.0469C121.492 15.0469 120.359 15.3828 119.359 16.0547C118.359 16.7109 117.859 17.6172 117.859 18.7734V36H111.484V10.8281H117.859V13.0547C120 11.1797 122.5 10.2422 125.359 10.2422C128.219 10.2422 130.297 10.9766 131.594 12.4453C132.906 13.9141 133.562 15.75 133.562 17.9531V36H127.188V18.3047ZM146.102 29.1094C146.102 31.125 147.195 32.1328 149.383 32.1328C150.242 32.1328 151.148 31.9062 152.102 31.4531C153.055 31 153.805 30.3594 154.352 29.5312V23.25C153.602 23.8594 152.281 24.5156 150.391 25.2188C148.5 25.9062 147.312 26.5469 146.828 27.1406C146.344 27.7188 146.102 28.375 146.102 29.1094ZM154.867 33.2109C154.133 34.1641 153.078 34.9609 151.703 35.6016C150.344 36.2266 148.688 36.5391 146.734 36.5391C144.781 36.5391 143.125 35.9062 141.766 34.6406C140.422 33.375 139.75 31.7578 139.75 29.7891C139.75 27.8203 140.359 26.2422 141.578 25.0547C142.812 23.8672 145.164 22.7266 148.633 21.6328C150.742 20.9609 152.219 20.3594 153.062 19.8281C153.922 19.2969 154.352 18.5625 154.352 17.625C154.352 15.6875 153.031 14.7266 150.391 14.7422C148.906 14.7422 147.883 15.0312 147.32 15.6094C146.758 16.1719 146.477 16.9922 146.477 18.0703V19.0547H140.5V18.3047C140.5 15.7891 141.336 13.8281 143.008 12.4219C144.68 11 147.25 10.2891 150.719 10.2891C154.188 10.2891 156.703 11.0234 158.266 12.4922C159.844 13.9609 160.633 16.0703 160.633 18.8203V28.7812C160.633 29.9062 160.773 30.6484 161.055 31.0078C161.336 31.3672 161.875 31.5469 162.672 31.5469L162.414 36.1875H161.078C159.344 36.1875 157.992 35.9531 157.023 35.4844C156.055 35 155.336 34.2422 154.867 33.2109ZM13.7969 63.6094C11.6562 63.6094 9.39062 63.3281 7 62.7656C4.60938 62.2031 2.54688 61.4375 0.8125 60.4688L3.20312 55.3828C6.67188 57.2266 10.2578 58.1484 13.9609 58.1484C15.8203 58.1484 17.1328 57.7656 17.8984 57C18.6641 56.2344 19.0469 55.0859 19.0469 53.5547C19.0469 53.2578 19.0156 52.8125 18.9531 52.2188C18.8125 50.8125 17.25 49.6641 14.2656 48.7734L8.35938 47.0391C6.54688 46.5078 5.09375 45.75 4 44.7656C2.90625 43.7656 2.16406 42.6797 1.77344 41.5078C1.38281 40.3203 1.1875 38.9375 1.1875 37.3594C1.1875 34.1875 2.3125 31.8047 4.5625 30.2109C6.82812 28.6172 9.71094 27.8203 13.2109 27.8203C17.8359 27.8203 21.6953 28.7188 24.7891 30.5156L22.8203 35.4141C19.8047 33.9922 16.8047 33.2812 13.8203 33.2812C10.0703 33.2812 8.14062 34.4297 8.03125 36.7266C8.03125 36.8516 8.03125 36.9688 8.03125 37.0781C8.03125 38.25 8.32031 39.1641 8.89844 39.8203C9.49219 40.4766 10.6953 41.0781 12.5078 41.625L18.3906 43.3828C20.7656 44.1016 22.5234 45.2344 23.6641 46.7812C24.8203 48.3281 25.3984 50.5312 25.3984 53.3906C25.3984 56.2344 24.4844 58.6484 22.6562 60.6328C20.8438 62.6172 17.8906 63.6094 13.7969 63.6094ZM47.4297 60.2344C46.9297 61.2656 45.9609 62.0781 44.5234 62.6719C43.0859 63.25 41.4922 63.5391 39.7422 63.5391C37.2266 63.5391 35.2422 62.8438 33.7891 61.4531C32.3359 60.0625 31.6094 58.3047 31.6094 56.1797V37.8281H37.9844V55.1484C37.9844 56.3516 38.4062 57.25 39.25 57.8438C40.1094 58.4375 41.1562 58.7344 42.3906 58.7344C43.625 58.7344 44.7422 58.4062 45.7422 57.75C46.7422 57.0781 47.2422 56.0938 47.2422 54.7969V37.8281H53.6172V63H47.6172L47.4297 60.2344ZM71.6875 59.1094C74.6875 59.1094 76.1875 57.9062 76.1875 55.5V45.3047C76.1875 42.9297 74.7578 41.7422 71.8984 41.7422C70.9453 41.7422 70.0625 41.8984 69.25 42.2109C68.4375 42.5234 67.8281 42.8828 67.4219 43.2891V58.0078C68.7969 58.7422 70.2188 59.1094 71.6875 59.1094ZM61.0469 72.6094V37.8281H65.5L66.1328 39.4688C68.1172 38.0156 70.5 37.2891 73.2812 37.2891C76.0781 37.2891 78.3203 38.0312 80.0078 39.5156C81.7109 40.9844 82.5625 42.9453 82.5625 45.3984V55.3594C82.5625 57.6094 81.7031 59.5391 79.9844 61.1484C78.2656 62.7422 75.6797 63.5391 72.2266 63.5391C70.4297 63.5391 68.8281 63.2266 67.4219 62.6016V72.6094H61.0469ZM99.8594 59.1094C102.859 59.1094 104.359 57.9062 104.359 55.5V45.3047C104.359 42.9297 102.93 41.7422 100.07 41.7422C99.1172 41.7422 98.2344 41.8984 97.4219 42.2109C96.6094 42.5234 96 42.8828 95.5938 43.2891V58.0078C96.9688 58.7422 98.3906 59.1094 99.8594 59.1094ZM89.2188 72.6094V37.8281H93.6719L94.3047 39.4688C96.2891 38.0156 98.6719 37.2891 101.453 37.2891C104.25 37.2891 106.492 38.0312 108.18 39.5156C109.883 40.9844 110.734 42.9453 110.734 45.3984V55.3594C110.734 57.6094 109.875 59.5391 108.156 61.1484C106.438 62.7422 103.852 63.5391 100.398 63.5391C98.6016 63.5391 97 63.2266 95.5938 62.6016V72.6094H89.2188ZM127.469 63.5391C120.188 63.5391 116.547 60.8203 116.547 55.3828V45.4688C116.547 42.8906 117.5 40.8828 119.406 39.4453C121.328 38.0078 124.008 37.2891 127.445 37.2891C130.898 37.2891 133.586 38.0156 135.508 39.4688C137.43 40.9062 138.391 42.9062 138.391 45.4688V55.3828C138.391 59.4297 136.469 61.9609 132.625 62.9766C131.188 63.3516 129.469 63.5391 127.469 63.5391ZM127.469 59.1094C130.5 59.1094 132.016 57.9609 132.016 55.6641V45.1875C132.016 43.9531 131.633 43.0703 130.867 42.5391C130.102 42.0078 128.969 41.7422 127.469 41.7422C124.438 41.7422 122.922 42.8906 122.922 45.1875V55.6641C122.922 56.8984 123.297 57.7812 124.047 58.3125C124.812 58.8438 125.953 59.1094 127.469 59.1094ZM145.047 63V37.8281H151.422V40.8281C151.797 40.1094 152.578 39.4688 153.766 38.9062C155.812 37.9219 157.789 37.4297 159.695 37.4297C159.914 37.4297 160.117 37.4375 160.305 37.4531L160.164 42.8672C157.367 43.0078 155.047 43.5312 153.203 44.4375C152.172 44.9375 151.578 45.5 151.422 46.125V63H145.047ZM176.359 63.2812C172.531 63.2812 169.789 62.7031 168.133 61.5469C166.477 60.3906 165.648 58.2109 165.648 55.0078V41.8828H162.297V37.8281H165.836L166.422 29.7422H172.023V37.8281H178V41.8828H172.023V54.5625C172.023 56.125 172.391 57.1797 173.125 57.7266C173.875 58.2734 175.305 58.5469 177.414 58.5469H178.164L177.93 63.2812H176.359Z" fill="#333333"/>
</svg>
