<svg width="31" height="70" viewBox="0 0 31 70" fill="none" xmlns="http://www.w3.org/2000/svg">
<path d="M17.9659 14.4436H13.0341C6.80838 14.4436 1.76137 19.4908 1.76137 25.7167V39.1035C1.76137 41.0492 3.33849 42.6263 5.28409 42.6263H7.08509H8.46565V67.6385H15.5011V42.6263H15.521V67.6385H22.5564V42.6263H23.6858H25.7159C27.6615 42.6263 29.2386 41.0492 29.2386 39.1035V25.7167C29.2386 19.4908 24.1916 14.4436 17.9659 14.4436Z" fill="#C0F4F1"/>
<path d="M8.46564 35.1404V42.6264V67.6386H15.5012V42.6264H15.5211V67.6386H22.5565V42.6264V35.1404H8.46564Z" fill="#546DFF"/>
<path d="M15.5 14.4437C12.3871 14.4437 9.86363 11.9201 9.86363 8.80716V7.39802C9.86363 4.28506 12.3871 1.76147 15.5 1.76147C18.6129 1.76147 21.1364 4.28506 21.1364 7.39802V8.80716C21.1364 11.9201 18.6129 14.4437 15.5 14.4437Z" fill="#FFDCA0"/>
<path d="M21.4726 13.1654C22.3676 11.9421 22.8977 10.4355 22.8977 8.80711V7.39797C22.8977 3.31869 19.5791 0 15.5 0C11.4209 0 8.10227 3.31869 8.10227 7.39797V8.80711C8.10227 10.4355 8.63244 11.9421 9.52739 13.1654C4.03881 14.701 0 19.7445 0 25.7168V39.1036C0 42.0173 2.37044 44.3878 5.28409 44.3878H6.70428V67.6386C6.70428 68.6112 7.49284 69.4 8.46564 69.4H22.5565C23.5294 69.4 24.3179 68.6112 24.3179 67.6386V44.3878H25.7159C28.6296 44.3878 31 42.0173 31 39.1036V25.7168C31 19.7445 26.9612 14.701 21.4726 13.1654ZM11.625 7.39797C11.625 5.26119 13.3633 3.52284 15.5 3.52284C17.6367 3.52284 19.375 5.26119 19.375 7.39797V8.80711C19.375 10.9439 17.6367 12.6822 15.5 12.6822C13.3633 12.6822 11.625 10.9439 11.625 8.80711V7.39797ZM17.2825 65.8772V46.9419C17.2825 46.8563 17.2744 46.773 17.2626 46.6907V41.5695C17.2626 40.5967 16.474 39.8081 15.5012 39.8081C14.5284 39.8081 13.7399 40.5967 13.7399 41.5695V65.8772H10.2272V36.9018H20.7954V65.8772H17.2825ZM27.4773 39.1036C27.4773 40.0748 26.6871 40.865 25.7159 40.865H24.3179V33.0267C24.3179 32.0538 23.5294 31.2652 22.5565 31.2652C21.5837 31.2652 20.7952 32.0538 20.7952 33.0267V33.3789H10.227V26.4213C10.227 25.4485 9.43844 24.6599 8.46564 24.6599C7.49284 24.6599 6.70428 25.4485 6.70428 26.4213V40.865H5.28409C4.31287 40.865 3.52273 40.0748 3.52273 39.1036V25.7168C3.52273 20.4719 7.78945 16.2051 13.0341 16.2051H17.9659C23.2105 16.2051 27.4773 20.4719 27.4773 25.7168V39.1036Z" fill="black"/>
<path d="M22.556 24.6599C22.0928 24.6599 21.6384 24.8484 21.3107 25.176C20.9831 25.5036 20.7947 25.9581 20.7947 26.4213C20.7947 26.8846 20.9831 27.339 21.3107 27.6667C21.6401 27.9943 22.0928 28.1828 22.556 28.1828C23.021 28.1828 23.4737 27.9943 23.8013 27.6667C24.1307 27.339 24.3174 26.8846 24.3174 26.4213C24.3174 25.9581 24.1307 25.5036 23.8013 25.176C23.4737 24.8484 23.021 24.6599 22.556 24.6599Z" fill="black"/>
</svg>
